<svg width="15" height="16" viewBox="0 0 15 16" fill="none" xmlns="http://www.w3.org/2000/svg">
  <g clip-path="url(#clip0_650_19619)">
  <path d="M3.21429 1V2H1.60714C0.719866 2 0 2.67188 0 3.5V5H15V3.5C15 2.67188 14.2801 2 13.3929 2H11.7857V1C11.7857 0.446875 11.3069 0 10.7143 0C10.1217 0 9.64286 0.446875 9.64286 1V2H5.35714V1C5.35714 0.446875 4.87835 0 4.28571 0C3.69308 0 3.21429 0.446875 3.21429 1ZM15 6H0V14.5C0 15.3281 0.719866 16 1.60714 16H13.3929C14.2801 16 15 15.3281 15 14.5V6Z" fill="#333333"/>
  </g>
  <defs>
  <clipPath id="clip0_650_19619">
  <rect width="15" height="16" fill="white"/>
  </clipPath>
  </defs>
  </svg>
  