<svg width="512" height="512" viewBox="0 0 512 512" fill="none" xmlns="http://www.w3.org/2000/svg">
<g clip-path="url(#clip0_1688_3264)">
<path d="M191.785 243.796L241.485 343.196C247.485 355.296 264.885 354.896 270.385 342.596L327.285 216.296L357.285 287.996H451.385L268.885 474.496C261.785 481.796 250.285 481.796 243.185 474.496L60.5851 287.996H169.685L191.785 243.796ZM38.2851 73.8963L40.6852 71.3963C92.1852 18.7963 176.485 18.7963 228.085 71.3963L255.985 99.9963L283.885 71.4963C335.385 18.7963 419.785 18.7963 471.285 71.4963L473.685 73.8963C522.385 123.696 524.485 202.996 480.985 255.996H378.585L342.685 169.796C337.285 156.896 319.085 156.596 313.285 169.396L255.085 298.696L206.085 200.796C200.185 188.996 183.385 188.996 177.485 200.796L149.885 255.996H30.9851C-12.5149 202.996 -10.4149 123.696 38.2851 73.8963V73.8963Z" fill="white"/>
</g>
<defs>
<clipPath id="clip0_1688_3264">
<rect width="512" height="512" fill="white" transform="matrix(-1 0 0 1 512 0)"/>
</clipPath>
</defs>
</svg>
