<svg width="512" height="512" viewBox="0 0 512 512" fill="none" xmlns="http://www.w3.org/2000/svg">
<g clip-path="url(#clip0_1688_3250)">
<path d="M14.6099 361.802L126.61 313.802C131.394 311.763 136.712 311.334 141.762 312.578C146.812 313.823 151.321 316.674 154.61 320.702L204.21 381.302C282.053 344.6 344.698 281.955 381.4 204.112L320.8 154.512C316.763 151.229 313.906 146.72 312.661 141.668C311.416 136.616 311.851 131.295 313.9 126.512L361.9 14.5123C364.149 9.3564 368.126 5.14677 373.146 2.6093C378.167 0.0718346 383.915 -0.634422 389.4 0.612316L493.4 24.6123C498.688 25.8335 503.407 28.8111 506.785 33.0592C510.163 37.3072 512.001 42.5748 512 48.0023C512 304.502 304.1 512.002 47.9999 512.002C42.5708 512.006 37.3008 510.168 33.0507 506.79C28.8006 503.412 25.8215 498.692 24.5999 493.402L0.599945 389.402C-0.638768 383.891 0.0824685 378.119 2.63953 373.082C5.19658 368.044 9.42951 364.056 14.6099 361.802V361.802Z" fill="white"/>
</g>
<defs>
<clipPath id="clip0_1688_3250">
<rect width="512" height="512" fill="white" transform="matrix(-1 0 0 1 512 0)"/>
</clipPath>
</defs>
</svg>
