<svg width="513" height="512" viewBox="0 0 513 512" fill="none" xmlns="http://www.w3.org/2000/svg">
<g clip-path="url(#clip0_1688_3225)">
<path d="M14.9097 361.802L126.91 313.802C131.694 311.763 137.012 311.334 142.062 312.578C147.111 313.823 151.62 316.674 154.91 320.702L204.51 381.302C282.352 344.6 344.998 281.955 381.7 204.112L321.1 154.512C317.063 151.229 314.206 146.72 312.961 141.668C311.716 136.616 312.151 131.295 314.2 126.512L362.2 14.5123C364.449 9.3564 368.426 5.14677 373.446 2.6093C378.466 0.0718346 384.215 -0.634422 389.7 0.612316L493.7 24.6123C498.988 25.8335 503.706 28.8111 507.084 33.0592C510.463 37.3072 512.301 42.5748 512.3 48.0023C512.3 304.502 304.4 512.002 48.2997 512.002C42.8706 512.006 37.6006 510.168 33.3505 506.79C29.1004 503.412 26.1213 498.692 24.8998 493.402L0.89975 389.402C-0.338964 383.891 0.382273 378.119 2.93933 373.082C5.49639 368.044 9.72932 364.056 14.9097 361.802V361.802Z" fill="#828282"/>
</g>
<defs>
<clipPath id="clip0_1688_3225">
<rect width="512" height="512" fill="white" transform="matrix(-1 0 0 1 512.3 0)"/>
</clipPath>
</defs>
</svg>
