<svg width="512" height="512" viewBox="0 0 512 512" fill="none" xmlns="http://www.w3.org/2000/svg">
<g clip-path="url(#clip0_1688_3224)">
<path d="M255.977 160C211.777 160 175.977 124.2 175.977 80C175.977 35.8 211.777 0 255.977 0C300.177 0 335.977 35.8 335.977 80C335.977 124.2 300.177 160 255.977 160ZM309.377 408.8L283.777 376.8L345.277 325.6L391.177 383C402.577 397.2 402.877 417.4 391.977 432L343.977 496C336.077 506.5 324.077 512 311.977 512C303.677 512 295.177 509.4 287.977 504C270.277 490.8 266.777 465.7 279.977 448L309.377 408.8ZM166.677 325.6L228.177 376.8L202.577 408.8L231.977 448C245.177 465.7 241.677 490.8 223.977 504C216.777 509.4 208.377 512 199.977 512C187.777 512 175.777 506.5 167.977 496L119.977 432C109.077 417.4 109.377 397.2 120.777 383L166.677 325.6V325.6ZM71.277 145C83.977 126.9 108.877 122.6 126.977 135.2L167.577 163.7C220.277 200.7 291.777 200.7 344.377 163.7L384.977 135.3C403.077 122.6 427.977 127 440.677 145C453.377 163.1 448.977 188 430.977 200.7L390.377 229.2C373.377 241.1 354.977 250.1 335.977 257.1V288H175.977V257.2C156.977 250.2 138.577 241.2 121.577 229.3L80.977 200.8C62.877 188 58.577 163.1 71.277 145Z" fill="white"/>
</g>
<defs>
<clipPath id="clip0_1688_3224">
<rect width="512" height="512" fill="white" transform="matrix(-1 0 0 1 512 0)"/>
</clipPath>
</defs>
</svg>
