<svg width="512" height="512" viewBox="0 0 512 512" fill="none" xmlns="http://www.w3.org/2000/svg">
<path d="M255.99 256C185.29 256 127.99 198.7 127.99 128C127.99 57.3 185.29 0 255.99 0C326.69 0 383.99 57.3 383.99 128C383.99 198.7 326.69 256 255.99 256ZM375.99 424C375.99 437.3 365.29 448 351.99 448C338.69 448 327.99 437.3 327.99 424C327.99 410.7 338.69 400 351.99 400C365.29 400 375.99 410.7 375.99 424ZM159.99 288.6V337.6C123.49 345 95.9902 377.4 95.9902 416V457.7C95.9902 465.3 101.39 471.9 108.89 473.4L141.09 479.8C145.39 480.7 149.59 477.9 150.49 473.5L153.59 457.8C154.49 453.5 151.69 449.2 147.29 448.4L127.99 444.5V416C127.99 353.2 223.99 350.9 223.99 417.9V444.6L204.69 448.5C200.39 449.4 197.59 453.6 198.39 457.9L201.49 473.6C202.39 477.9 206.59 480.7 210.89 479.9L242.09 475.7C249.99 474.6 255.89 467.9 255.89 459.8V416C255.89 377.4 228.39 345.1 191.89 337.6V292.4C194.09 293.1 196.29 293.5 198.49 294.3C216.49 300.6 235.79 304.1 255.89 304.1C275.99 304.1 295.29 300.6 313.29 294.3C320.69 291.7 328.19 290.1 335.89 289.1V370.7C312.79 377.6 295.89 398.8 295.89 424.1C295.89 455 320.99 480.1 351.89 480.1C382.79 480.1 407.89 455 407.89 424.1C407.89 398.8 390.99 377.6 367.89 370.7V290.3C431.49 301 479.99 355.8 479.99 422.4V467.2C479.99 491.9 459.89 512 435.19 512H76.7902C52.0902 512 31.9902 491.9 31.9902 467.2V422.4C31.9902 350.4 88.7902 292.1 159.99 288.6V288.6Z" fill="white"/>
</svg>
