<svg width="512" height="512" viewBox="0 0 512 512" fill="none" xmlns="http://www.w3.org/2000/svg">
	<path d="M255.989 256C185.289 256 127.989 198.7 127.989 128C127.989 57.3 185.289 0 255.989 0C326.689 0 383.989 57.3 383.989 128C383.989 198.7 326.689 256 255.989 256ZM375.989 424C375.989 437.3 365.289 448 351.989 448C338.689 448 327.989 437.3 327.989 424C327.989 410.7 338.689 400 351.989 400C365.289 400 375.989 410.7 375.989 424ZM159.989 288.6V337.6C123.489 345 95.9893 377.4 95.9893 416V457.7C95.9893 465.3 101.389 471.9 108.889 473.4L141.089 479.8C145.389 480.7 149.589 477.9 150.489 473.5L153.589 457.8C154.489 453.5 151.689 449.2 147.289 448.4L127.989 444.5V416C127.989 353.2 223.989 350.9 223.989 417.9V444.6L204.689 448.5C200.389 449.4 197.589 453.6 198.389 457.9L201.489 473.6C202.389 477.9 206.589 480.7 210.889 479.9L242.089 475.7C249.989 474.6 255.889 467.9 255.889 459.8V416C255.889 377.4 228.389 345.1 191.889 337.6V292.4C194.089 293.1 196.289 293.5 198.489 294.3C216.489 300.6 235.789 304.1 255.889 304.1C275.989 304.1 295.289 300.6 313.289 294.3C320.689 291.7 328.189 290.1 335.889 289.1V370.7C312.789 377.6 295.889 398.8 295.889 424.1C295.889 455 320.989 480.1 351.889 480.1C382.789 480.1 407.889 455 407.889 424.1C407.889 398.8 390.989 377.6 367.889 370.7V290.3C431.489 301 479.989 355.8 479.989 422.4V467.2C479.989 491.9 459.889 512 435.189 512H76.7892C52.0892 512 31.9893 491.9 31.9893 467.2V422.4C31.9893 350.4 88.7893 292.1 159.989 288.6V288.6Z" fill="#828282" />
</svg>
