<svg width="120" height="120" viewBox="0 0 120 120" fill="none" xmlns="http://www.w3.org/2000/svg">
	<g clip-path="url(#clip0_137_1884)">
		<path d="M61.5896 37.5542L100 69.1896V103.333C100 104.217 99.6489 105.065 99.0237 105.69C98.3986 106.315 97.5508 106.667 96.6667 106.667L73.3209 106.606C72.4397 106.602 71.5962 106.249 70.9746 105.624C70.3531 104.999 70.0042 104.154 70.0042 103.273V83.3333C70.0042 82.4493 69.653 81.6014 69.0279 80.9763C68.4028 80.3512 67.5549 80 66.6709 80H53.3376C52.4535 80 51.6057 80.3512 50.9805 80.9763C50.3554 81.6014 50.0042 82.4493 50.0042 83.3333V103.258C50.0056 103.697 49.9204 104.132 49.7535 104.537C49.5866 104.943 49.3413 105.311 49.0316 105.622C48.7219 105.933 48.354 106.179 47.9489 106.347C47.5438 106.516 47.1095 106.602 46.6709 106.602L23.3334 106.667C22.4493 106.667 21.6015 106.315 20.9764 105.69C20.3512 105.065 20.0001 104.217 20.0001 103.333V69.1667L58.4021 37.5542C58.8536 37.1903 59.416 36.9918 59.9959 36.9918C60.5758 36.9918 61.1382 37.1903 61.5896 37.5542V37.5542ZM0.916729 59.0562L18.3334 44.7V15.8437C18.3334 15.1807 18.5968 14.5448 19.0656 14.076C19.5345 13.6071 20.1704 13.3438 20.8334 13.3438H32.5001C33.1631 13.3438 33.799 13.6071 34.2678 14.076C34.7367 14.5448 35.0001 15.1807 35.0001 15.8437V30.9708L53.6521 15.625C55.4421 14.152 57.6882 13.3467 60.0063 13.3467C62.3244 13.3467 64.5705 14.152 66.3605 15.625L119.096 59.0562C119.349 59.2655 119.558 59.5225 119.712 59.8128C119.866 60.103 119.961 60.4206 119.992 60.7476C120.023 61.0746 119.989 61.4044 119.893 61.7183C119.796 62.0322 119.639 62.324 119.429 62.5771L114.117 69.0354C113.908 69.2893 113.651 69.4996 113.361 69.6541C113.071 69.8086 112.753 69.9044 112.426 69.9359C112.098 69.9674 111.768 69.9341 111.454 69.8379C111.14 69.7416 110.847 69.5843 110.594 69.375L61.5896 29.0125C61.1382 28.6486 60.5758 28.4501 59.9959 28.4501C59.416 28.4501 58.8536 28.6486 58.4021 29.0125L9.39588 69.375C9.14286 69.5844 8.85106 69.7419 8.53715 69.8384C8.22324 69.935 7.89337 69.9688 7.56641 69.9378C7.23944 69.9069 6.92177 69.8118 6.63156 69.658C6.34136 69.5043 6.0843 69.2948 5.87506 69.0417L0.56256 62.5833C0.353398 62.3288 0.196584 62.0355 0.101147 61.7202C0.00570911 61.405 -0.0264713 61.0739 0.00644048 60.7462C0.0393523 60.4184 0.136719 60.1004 0.292937 59.8104C0.449154 59.5203 0.661146 59.2641 0.916729 59.0562V59.0562Z" fill="#828282" />
	</g>
	<defs>
		<clipPath id="clip0_137_1884">
			<rect width="120" height="120" fill="white" transform="matrix(-1 0 0 1 120 0)" />
		</clipPath>
	</defs>
</svg>
