<svg width="513" height="512" viewBox="0 0 513 512" fill="none" xmlns="http://www.w3.org/2000/svg">
	<path d="M468.302 192H44.3017C37.7017 192 32.3017 197.4 32.3017 204V464C32.3017 490.5 53.8017 512 80.3017 512H432.302C458.802 512 480.302 490.5 480.302 464V204C480.302 197.4 474.902 192 468.302 192ZM32.3017 148V112C32.3017 85.5 53.8017 64 80.3017 64H128.302V12C128.302 5.4 133.702 0 140.302 0H180.302C186.902 0 192.302 5.4 192.302 12V64H320.302V12C320.302 5.4 325.702 0 332.302 0H372.302C378.902 0 384.302 5.4 384.302 12V64H432.302C458.802 64 480.302 85.5 480.302 112V148C480.302 154.6 474.902 160 468.302 160H44.3017C37.7017 160 32.3017 154.6 32.3017 148Z" fill="#828282" />
</svg>
