<svg width="512" height="512" viewBox="0 0 512 512" fill="none" xmlns="http://www.w3.org/2000/svg">
	<path d="M468.002 192H44.0019C37.4019 192 32.0019 197.4 32.0019 204V464C32.0019 490.5 53.5019 512 80.0019 512H432.002C458.502 512 480.002 490.5 480.002 464V204C480.002 197.4 474.602 192 468.002 192ZM32.0019 148V112C32.0019 85.5 53.5019 64 80.0019 64H128.002V12C128.002 5.4 133.402 0 140.002 0H180.002C186.602 0 192.002 5.4 192.002 12V64H320.002V12C320.002 5.4 325.402 0 332.002 0H372.002C378.602 0 384.002 5.4 384.002 12V64H432.002C458.502 64 480.002 85.5 480.002 112V148C480.002 154.6 474.602 160 468.002 160H44.0019C37.4019 160 32.0019 154.6 32.0019 148Z" fill="white" />
</svg>
