<svg width="513" height="512" viewBox="0 0 513 512" fill="none" xmlns="http://www.w3.org/2000/svg">
<g clip-path="url(#clip0_1688_3227)">
<path d="M512.3 405.3V448C512.3 483.3 426.3 512 320.3 512C214.3 512 128.3 483.3 128.3 448V405.3C169.6 434.4 245.1 448 320.3 448C395.5 448 471 434.4 512.3 405.3ZM192.3 128C86.2998 128 0.299805 99.3 0.299805 64C0.299805 28.7 86.2998 0 192.3 0C298.3 0 384.3 28.7 384.3 64C384.3 99.3 298.3 128 192.3 128ZM512.3 300.4V352C512.3 387.3 426.3 416 320.3 416C214.3 416 128.3 387.3 128.3 352V300.4C169.6 334.4 245.2 352 320.3 352C395.4 352 471 334.4 512.3 300.4ZM96.2998 311.4C38.9998 300.3 0.299805 279.7 0.299805 256V213.3C23.4998 229.7 57.5998 240.9 96.2998 247.8V311.4ZM320.3 160C426.3 160 512.3 195.8 512.3 240C512.3 284.2 426.3 320 320.3 320C214.3 320 128.3 284.2 128.3 240C128.3 195.8 214.3 160 320.3 160ZM101 216.3C40.9998 205.5 0.299805 184.3 0.299805 160V117.3C35.7998 142.4 96.7998 155.9 161 159.1C131.5 173.4 109.8 192.6 101 216.3Z" fill="#828282"/>
</g>
<defs>
<clipPath id="clip0_1688_3227">
<rect width="512" height="512" fill="white" transform="matrix(-1 0 0 1 512.3 0)"/>
</clipPath>
</defs>
</svg>
