<svg width="512" height="512" viewBox="0 0 512 512" fill="none" xmlns="http://www.w3.org/2000/svg">
<g clip-path="url(#clip0_1688_3254)">
<path d="M512 405.3V448C512 483.3 426 512 320 512C214 512 128 483.3 128 448V405.3C169.3 434.4 244.8 448 320 448C395.2 448 470.7 434.4 512 405.3ZM192 128C86 128 0 99.3 0 64C0 28.7 86 0 192 0C298 0 384 28.7 384 64C384 99.3 298 128 192 128ZM512 300.4V352C512 387.3 426 416 320 416C214 416 128 387.3 128 352V300.4C169.3 334.4 244.9 352 320 352C395.1 352 470.7 334.4 512 300.4ZM96 311.4C38.7 300.3 0 279.7 0 256V213.3C23.2 229.7 57.3 240.9 96 247.8V311.4ZM320 160C426 160 512 195.8 512 240C512 284.2 426 320 320 320C214 320 128 284.2 128 240C128 195.8 214 160 320 160ZM100.7 216.3C40.7 205.5 0 184.3 0 160V117.3C35.5 142.4 96.5 155.9 160.7 159.1C131.2 173.4 109.5 192.6 100.7 216.3Z" fill="white"/>
</g>
<defs>
<clipPath id="clip0_1688_3254">
<rect width="512" height="512" fill="white" transform="matrix(-1 0 0 1 512 0)"/>
</clipPath>
</defs>
</svg>
