<svg width="513" height="512" viewBox="0 0 513 512" fill="none" xmlns="http://www.w3.org/2000/svg">
<g clip-path="url(#clip0_1688_3268)">
<path d="M358.799 255.99C309.279 255.99 269.199 215.91 269.199 166.39C269.199 116.87 309.279 76.79 358.799 76.79C408.319 76.79 448.399 116.87 448.399 166.39C448.399 215.91 408.319 255.99 358.799 255.99ZM297.359 281.59H303.999C320.639 289.59 339.119 294.39 358.799 294.39C378.479 294.39 396.879 289.59 413.599 281.59H420.239C471.119 281.59 512.399 322.87 512.399 373.75V396.79C512.399 417.99 495.199 435.19 473.999 435.19H243.599C222.399 435.19 205.199 417.99 205.199 396.79V373.75C205.199 322.87 246.479 281.59 297.359 281.59ZM128.399 255.99C85.9994 255.99 51.5994 221.59 51.5994 179.19C51.5994 136.79 85.9994 102.39 128.399 102.39C170.799 102.39 205.199 136.79 205.199 179.19C205.199 221.59 170.799 255.99 128.399 255.99ZM89.9994 281.59H93.0394C104.159 285.43 115.919 287.99 128.399 287.99C140.879 287.99 152.639 285.43 163.759 281.59H166.799C183.119 281.59 198.159 286.31 211.359 293.91C191.839 314.95 179.599 342.87 179.599 373.75V404.47C179.599 406.23 179.999 407.91 180.079 409.59H38.7994C17.5994 409.59 0.399406 392.39 0.399406 371.19C0.399406 321.67 40.4794 281.59 89.9994 281.59V281.59Z" fill="white"/>
</g>
<defs>
<clipPath id="clip0_1688_3268">
<rect width="512" height="512" fill="white" transform="matrix(-1 0 0 1 512.399 0)"/>
</clipPath>
</defs>
</svg>
